# xmcd
#
# Track frame offsets:
#	150
#	18335
#	31635
#	40450
#	50355
#	68687
#	94730
#	117382
#	135580
#	154560
#	164572
#	178632
#	190747
#	204775
#	218422
#	232270
#	254562
#	276710
#
# Disc length: 3936 seconds
#
# Revision: 2
# Processed by: cddbd v1.5.2PL0 Copyright (c) Steve Scherf et al.
# Submitted via: EasyCDDAExtractor 16.1.0.1
#
DISCID=fb0f5e12
DTITLE=劉德華 - 99 演唱會
DYEAR=1999
DGENRE=Other
TTITLE0=謝謝您的愛
TTITLE1=獨自去偷歡
TTITLE2=倒轉地球
TTITLE3=開心的馬騮
TTITLE4=一起走過的日子
TTITLE5=預謀
TTITLE6=冰雨
TTITLE7=如果妳是我的傳說
TTITLE8=掛念
TTITLE9=只知道此刻愛妳
TTITLE10=可不可以
TTITLE11=流浪
TTITLE12=浪子心聲
TTITLE13=情深的一句
TTITLE14=真我的風采
TTITLE15=木魚與金魚
TTITLE16=忘情水
TTITLE17=中國人
EXTD=
EXTT0=
EXTT1=
EXTT2=
EXTT3=
EXTT4=
EXTT5=
EXTT6=
EXTT7=
EXTT8=
EXTT9=
EXTT10=
EXTT11=
EXTT12=
EXTT13=
EXTT14=
EXTT15=
EXTT16=
EXTT17=
PLAYORDER=
